<?xml version="1.0" encoding="UTF-8" standalone="no"?><svg xmlns="http://www.w3.org/2000/svg" xmlns:xlink= "http://www.w3.org/1999/xlink" width="600" height="390" aria-label="A chart." style="overflow: hidden;"><defs id="_ABSTRACT_RENDERER_ID_118"><clipPath id="_ABSTRACT_RENDERER_ID_119"><rect x="115" y="75" width="371" height="241"></rect></clipPath></defs><rect x="0" y="0" width="600" height="390" stroke="none" stroke-width="0" fill="#ffffff"></rect><g><text text-anchor="start" x="115" y="52.05" font-family="Arial" font-size="13" font-weight="bold" stroke="none" stroke-width="0" fill="#000000">Database libraries benchmark</text><rect x="115" y="41" width="371" height="13" stroke="none" stroke-width="0" fill-opacity="0" fill="#ffffff"></rect></g><g><rect x="499" y="75" width="88" height="97" stroke="none" stroke-width="0" fill-opacity="0" fill="#ffffff"></rect><g><rect x="499" y="75" width="88" height="13" stroke="none" stroke-width="0" fill-opacity="0" fill="#ffffff"></rect><g><text text-anchor="start" x="530" y="86.05" font-family="Arial" font-size="13" stroke="none" stroke-width="0" fill="#222222">Hibernate</text></g><rect x="499" y="75" width="26" height="13" stroke="none" stroke-width="0" fill="#3366cc"></rect></g><g><rect x="499" y="96" width="88" height="13" stroke="none" stroke-width="0" fill-opacity="0" fill="#ffffff"></rect><g><text text-anchor="start" x="530" y="107.05" font-family="Arial" font-size="13" stroke="none" stroke-width="0" fill="#222222">JDBC</text></g><rect x="499" y="96" width="26" height="13" stroke="none" stroke-width="0" fill="#dc3912"></rect></g><g><rect x="499" y="117" width="88" height="13" stroke="none" stroke-width="0" fill-opacity="0" fill="#ffffff"></rect><g><text text-anchor="start" x="530" y="128.05" font-family="Arial" font-size="13" stroke="none" stroke-width="0" fill="#222222">MyBatis</text></g><rect x="499" y="117" width="26" height="13" stroke="none" stroke-width="0" fill="#ff9900"></rect></g><g><rect x="499" y="138" width="88" height="13" stroke="none" stroke-width="0" fill-opacity="0" fill="#ffffff"></rect><g><text text-anchor="start" x="530" y="149.05" font-family="Arial" font-size="13" stroke="none" stroke-width="0" fill="#222222">Jpa</text></g><rect x="499" y="138" width="26" height="13" stroke="none" stroke-width="0" fill="#109618"></rect></g><g><rect x="499" y="159" width="88" height="13" stroke="none" stroke-width="0" fill-opacity="0" fill="#ffffff"></rect><g><text text-anchor="start" x="530" y="170.05" font-family="Arial" font-size="13" stroke="none" stroke-width="0" fill="#222222">JDBI</text></g><rect x="499" y="159" width="26" height="13" stroke="none" stroke-width="0" fill="#990099"></rect></g></g><g><rect x="115" y="75" width="371" height="241" stroke="none" stroke-width="0" fill-opacity="0" fill="#ffffff"></rect><g clip-path="url(https://www.rapidtables.com/tools/bar-graph.html#_ABSTRACT_RENDERER_ID_119)"><g><rect x="115" y="315" width="371" height="1" stroke="none" stroke-width="0" fill="#cccccc"></rect><rect x="115" y="255" width="371" height="1" stroke="none" stroke-width="0" fill="#cccccc"></rect><rect x="115" y="195" width="371" height="1" stroke="none" stroke-width="0" fill="#cccccc"></rect><rect x="115" y="135" width="371" height="1" stroke="none" stroke-width="0" fill="#cccccc"></rect><rect x="115" y="75" width="371" height="1" stroke="none" stroke-width="0" fill="#cccccc"></rect><rect x="115" y="285" width="371" height="1" stroke="none" stroke-width="0" fill="#ebebeb"></rect><rect x="115" y="225" width="371" height="1" stroke="none" stroke-width="0" fill="#ebebeb"></rect><rect x="115" y="165" width="371" height="1" stroke="none" stroke-width="0" fill="#ebebeb"></rect><rect x="115" y="105" width="371" height="1" stroke="none" stroke-width="0" fill="#ebebeb"></rect></g><g><rect x="133" y="174" width="11" height="141" stroke="none" stroke-width="0" fill="#3366cc"></rect><rect x="226" y="299" width="10" height="16" stroke="none" stroke-width="0" fill="#3366cc"></rect><rect x="318" y="262" width="11" height="53" stroke="none" stroke-width="0" fill="#3366cc"></rect><rect x="411" y="245" width="10" height="70" stroke="none" stroke-width="0" fill="#3366cc"></rect><rect x="145" y="215" width="10" height="100" stroke="none" stroke-width="0" fill="#dc3912"></rect><rect x="237" y="299" width="11" height="16" stroke="none" stroke-width="0" fill="#dc3912"></rect><rect x="330" y="261" width="10" height="54" stroke="none" stroke-width="0" fill="#dc3912"></rect><rect x="422" y="245" width="11" height="70" stroke="none" stroke-width="0" fill="#dc3912"></rect><rect x="156" y="136" width="11" height="179" stroke="none" stroke-width="0" fill="#ff9900"></rect><rect x="249" y="299" width="11" height="16" stroke="none" stroke-width="0" fill="#ff9900"></rect><rect x="341" y="262" width="11" height="53" stroke="none" stroke-width="0" fill="#ff9900"></rect><rect x="434" y="246" width="11" height="69" stroke="none" stroke-width="0" fill="#ff9900"></rect><rect x="168" y="190" width="11" height="125" stroke="none" stroke-width="0" fill="#109618"></rect><rect x="261" y="298" width="10" height="17" stroke="none" stroke-width="0" fill="#109618"></rect><rect x="353" y="260" width="11" height="55" stroke="none" stroke-width="0" fill="#109618"></rect><rect x="446" y="245" width="10" height="70" stroke="none" stroke-width="0" fill="#109618"></rect><rect x="180" y="174" width="10" height="141" stroke="none" stroke-width="0" fill="#990099"></rect><rect x="272" y="298" width="11" height="17" stroke="none" stroke-width="0" fill="#990099"></rect><rect x="365" y="259" width="10" height="56" stroke="none" stroke-width="0" fill="#990099"></rect><rect x="457" y="238" width="11" height="77" stroke="none" stroke-width="0" fill="#990099"></rect></g><g><rect x="115" y="315" width="371" height="1" stroke="none" stroke-width="0" fill="#333333"></rect></g></g><g></g><g><g><text text-anchor="middle" x="161.75" y="335.05" font-family="Arial" font-size="13" stroke="none" stroke-width="0" fill="#222222">Query1</text></g><g><text text-anchor="middle" x="254.25" y="335.05" font-family="Arial" font-size="13" stroke="none" stroke-width="0" fill="#222222">Query2</text></g><g><text text-anchor="middle" x="346.75" y="335.05" font-family="Arial" font-size="13" stroke="none" stroke-width="0" fill="#222222">Query3</text></g><g><text text-anchor="middle" x="439.25" y="335.05" font-family="Arial" font-size="13" stroke="none" stroke-width="0" fill="#222222">Query4</text></g><g><text text-anchor="end" x="102" y="320.05" font-family="Arial" font-size="13" stroke="none" stroke-width="0" fill="#444444">0</text></g><g><text text-anchor="end" x="102" y="260.05" font-family="Arial" font-size="13" stroke="none" stroke-width="0" fill="#444444">1,000</text></g><g><text text-anchor="end" x="102" y="200.05" font-family="Arial" font-size="13" stroke="none" stroke-width="0" fill="#444444">2,000</text></g><g><text text-anchor="end" x="102" y="140.05" font-family="Arial" font-size="13" stroke="none" stroke-width="0" fill="#444444">3,000</text></g><g><text text-anchor="end" x="102" y="80.05" font-family="Arial" font-size="13" stroke="none" stroke-width="0" fill="#444444">4,000</text></g></g></g><g><g><text text-anchor="middle" x="300.5" y="368.05" font-family="Arial" font-size="13" font-style="italic" stroke="none" stroke-width="0" fill="#222222">Queries</text><rect x="115" y="357" width="371" height="13" stroke="none" stroke-width="0" fill-opacity="0" fill="#ffffff"></rect></g><g><text text-anchor="middle" x="39.05" y="195.5" font-family="Arial" font-size="13" font-style="italic" transform="rotate(-90 39.05 195.5)" stroke="none" stroke-width="0" fill="#222222">Time in mls</text><path d="M27.999999999999996,316L28.00000000000001,75L41.00000000000001,75L40.99999999999999,316Z" stroke="none" stroke-width="0" fill-opacity="0" fill="#ffffff"></path></g></g><g></g></svg>